<?xml version="1.0" encoding="UTF-8"?>
<!DOCTYPE svg PUBLIC "-//W3C//DTD SVG 1.1//EN" "http://www.w3.org/Graphics/SVG/1.1/DTD/svg11.dtd">
<svg xmlns="http://www.w3.org/2000/svg" version="1.1" width="352px" height="500px" style="shape-rendering:geometricPrecision; text-rendering:geometricPrecision; image-rendering:optimizeQuality; fill-rule:evenodd; clip-rule:evenodd" xmlns:xlink="http://www.w3.org/1999/xlink">
<g><path style="opacity:0.986" fill="#fefefe" d="M 33.5,10.5 C 130.167,10.5 226.833,10.5 323.5,10.5C 323.5,38.1667 323.5,65.8333 323.5,93.5C 254.5,93.5 185.5,93.5 116.5,93.5C 112.615,132.67 108.949,171.67 105.5,210.5C 125.582,187.622 150.916,174.456 181.5,171C 245.699,164.519 294.865,188.353 329,242.5C 350.718,284.97 355.385,329.303 343,375.5C 325.002,429.432 288.835,464.932 234.5,482C 189.539,494.101 144.873,493.101 100.5,479C 66.6039,467.086 39.7706,446.252 20,416.5C 7.75725,395.866 1.25725,373.533 0.5,349.5C 33.1735,349.167 65.8401,349.5 98.5,350.5C 103.233,380.407 120.233,399.574 149.5,408C 182.579,416.194 210.746,408.027 234,383.5C 253.317,355.673 257.317,325.673 246,293.5C 231.334,261.649 206.334,245.316 171,244.5C 142.409,245.065 118.576,255.732 99.5,276.5C 70.4669,271.272 41.4669,265.939 12.5,260.5C 12.1667,258.667 11.8333,256.833 11.5,255C 18.864,173.496 26.1974,91.9958 33.5,10.5 Z"/></g>
</svg>
